#!OML:ASF F:\VICON\USERDATA\INSTALL\rory3\rory3.ASF
:FULLY-SPECIFIED
:DEGREES
77
root 0.635494414938636 17.714293542751395 35.70201121297657 -1.3351928562393454 2.4994388812993535 1.058333402903291
lfemur 12.386245553807672 -3.1973720570715383 -25.791591400300685
ltibia 17.14517319869021
lfoot -1.886004615657166 -7.5335627625652775
ltoes -23.974047930965458
rfemur -27.2909094608692 4.730027129391127 18.44962067238177
rtibia 17.933756161099584
rfoot -11.871207997690119 -13.899433788801346
rtoes -2.574824271716774
lowerback -1.0 -1.213210590295535 -3.901462681598904
upperback 0.3536489169303028 -1.889098698541021 1.5058239227654804
thorax -5.614705747262594 -0.8097778276684022 4.4086852214562535
lowerneck -17.02325997100666 -3.0873592851650615 -2.7344968073528175
upperneck 20.257295840384003 -4.140500277060268 2.970777761949657
head 9.177216193483929 -1.8269107220563212 0.8357651629530367
lclavicle 7.100841150799226e-16 -5.272080201164842e-16
lhumerus -24.981345405185515 -0.524477581073509 81.5012826939453
lradius 30.401641487726486
lwrist 9.961127704368664
lhand -28.752844899704392 22.528747603556223
lfingers nan
lthumb -2.366610084981696 51.72593501962568
rclavicle 4.129263492768428e-16 -6.432254484677104e-16
rhumerus -34.376933670645606 -22.15355890552057 -76.58452498805946
rradius 29.268595410593015
rwrist 0.9447951113034976
rhand -18.34905105095103 -1.0
rfingers nan
rthumb 7.948955175866804 -6.808266771963864
78
root 0.5736482842714844 17.616481365447566 36.31802762815795 -1.5015799116407071 2.468973527932825 0.9747181811270815
lfemur 14.034245183222055 -3.906377734065837 -25.43549937424719
ltibia 19.061321684633043
lfoot -1.0571047698262577 -8.031331534281552
ltoes -23.26890132710256
rfemur -28.085249087661865 2.7725691416985248 20.27385879189309
rtibia 22.111705493335336
rfoot -10.976803591448057 -11.520537203024055
rtoes -3.5331715519279676
lowerback -1.0 -1.2294988416243626 -4.02316792921466
upperback 0.3293602395906801 -1.8902799272612836 1.592817027485392
thorax -5.551776814060058 -0.815535880676685 4.416015029036677
lowerneck -17.031780551015757 -2.9983425470926344 -2.6917137387291064
upperneck 20.326845309356283 -3.986694580970198 2.8439076313133977
head 9.206163762770455 -1.7758081081457167 0.8054892662367665
lclavicle 6.171663663789322e-16 -5.936723558339235e-16
lhumerus -24.623289219175398 -0.6498767666464311 81.52103443462669
lradius 31.102833994084467
lwrist 10.40742381809547
lhand -29.046197583389162 21.99791801571319
lfingers nan
lthumb -2.6802726192042874 51.06278028137238
rclavicle 3.38710963029482e-16 -7.123707166073814e-16
rhumerus -35.12197338541778 -22.960413704349143 -76.00833388417968
rradius 28.69310435254806
rwrist 1.5748414194235374
rhand -18.372591298722003 -1.0
rfingers nan
rthumb 7.940134429725202 -6.708009844320811
79
root 0.5327533527601815 17.542310349916296 37.609807787413345 -1.8827755010543397 2.134748782566708 0.8070491347522006
lfemur 15.159321717240353 -5.018528001688179 -25.09154072005257
ltibia 21.89811109868183
lfoot 0.24588037770978222 -8.506069556284839
ltoes -22.203696889356834
rfemur -28.372392008667553 1.9769665794933196 21.65104033822211
rtibia 26.886092373981597
rfoot -8.683627217685324 -9.86285568893454
rtoes -3.840126224805682
lowerback -1.0 -1.203925531882198 -3.989670469313322
upperback 0.3150740823529887 -1.8550614836929211 1.6726688031144352
thorax -5.527487128017102 -0.8015055376368194 4.343940307585106
lowerneck -17.016503830402957 -2.9009387936428292 -2.6375556320964253
upperneck 20.434274139325986 -3.8208112052611 2.6952077703710824
head 9.251694650536958 -1.7220807807838017 0.7672166861200185
lclavicle 6.971810839257906e-16 -5.484923259395488e-16
lhumerus -24.552341421042968 -0.5280470455372313 81.58808562204047
lradius 31.537155088509294
lwrist 10.704885667537317
lhand -29.361216695669725 21.298284158942746
lfingers nan
lthumb -3.012619168897466 50.21057925589709
rclavicle 3.6703786154372076e-16 -7.059173018058324e-16
rhumerus -35.85458104391098 -23.93161511165026 -75.25758136371634
rradius 27.94075616608575
rwrist 2.3985059456298634
rhand -18.353585896822022 -1.0
rfingers nan
rthumb 7.944426807061589 -6.669303499337334
80
root 0.4567494406395947 17.58341809168662 37.817099675900934 -2.4170905886538616 1.8135743543984142 -0.35660735815352673
lfemur 14.415224805177644 -6.044570096657506 -23.774343321258115
ltibia 27.291973446220815
lfoot 2.486644783975998 -9.502280106883642
ltoes -21.234018642859986
rfemur -27.533912992896106 2.272352063831365 23.47064021009424
rtibia 29.971757610897946
rfoot -6.197160061046953 -7.99134367316281
rtoes -1.961107872990289
lowerback -1.0 -1.1524122490136048 -2.8714189355714543
upperback 0.29842119566274644 -1.6709515975275162 1.9460780725050086
thorax -5.536630312992219 -0.7334378079827881 4.060243589550872
lowerneck -16.977842304187575 -2.8220489962159734 -2.5556183688002387
upperneck 20.551086275576285 -3.6901228109713857 2.536526502169572
head 9.302444212420303 -1.682265278084919 0.7198197609967012
lclavicle 5.778811981775164e-16 -6.543205798408967e-16
lhumerus -24.76880297988808 -0.2659891073069276 81.70580116069877
lradius 31.717713846102967
lwrist 10.821606228399624
lhand -29.606722483245665 20.710833803022275
lfingers nan
lthumb -3.258191582503003 49.50374773239798
rclavicle 3.001478905388257e-16 -7.760095769667465e-16
rhumerus -36.54908508872321 -24.99258728122318 -74.35411820573138
rradius 27.069243907932016
rwrist 3.3578825270127415
rhand -18.29496440803749 -1.0
rfingers nan
rthumb 7.970620972647694 -6.698981465275722
81
root 0.40088640225043404 17.657972047991873 38.216750459118934 -2.8892880045465072 2.1469104417034615 -1.4300700785673381
lfemur 11.577403735618514 -5.6117099525684955 -22.123460508019466
ltibia 35.076013251549426
lfoot 6.21079695219274 -11.679448177615342
ltoes -16.738212825111475
rfemur -25.968594904176626 2.3181123258951266 25.202833502323003
rtibia 32.09585391202728
rfoot -5.173512969703573 -6.8661475848378455
rtoes 1.8374000811183935
lowerback -1.0 -1.1979572326993038 -1.7879070119190248
upperback 0.21540618445007026 -1.5940515234481494 2.187640923677696
thorax -5.604327255569153 -0.7101301600185751 3.77129302901578
lowerneck -16.889830013829048 -2.784922912950113 -2.467438540422966
upperneck 20.636947539879994 -3.630981004418641 2.4167942181758395
head 9.340665923233505 -1.6663692860003394 0.6783985094056413
lclavicle 5.213448628958419e-16 -7.163041295047121e-16
lhumerus -25.249024231410324 0.05591649591564307 81.87056875774917
lradius 31.69054992846444
lwrist 10.792024838288812
lhand -29.711798190928878 20.412892744440814
lfingers nan
lthumb -3.351295574370675 49.14998850797493
rclavicle 3.090485768439415e-16 -7.995752216576303e-16
rhumerus -37.193082837150705 -26.029726504190698 -73.43141458341817
rradius 26.221109027089284
rwrist 4.298833709446706
rhand -18.2198912555599 -1.0
rfingers nan
rthumb 8.010162170293022 -6.813292120111099
82
root 0.33057551416994996 17.726529248337645 38.39964899011208 -3.472710303846293 1.776489866535134 -2.6841628076153308
lfemur 7.005836081099704 -4.467805127452969 -19.73789576431006
ltibia 44.186253858105374
lfoot 10.912197644246504 -14.674997925971205
ltoes -8.094396302092404
rfemur -23.496650099937543 2.789020299864023 27.2691207995311
rtibia 32.87480493656629
rfoot -5.363544636442977 -6.864880836507929
rtoes 5.027031133143218
lowerback -1.0 -0.9966114667295911 -0.4346617839117217
upperback 0.20322545714691126 -1.195564142816494 2.4199862188282144
thorax -5.651054724455141 -0.5488569483332537 3.23811980132713
lowerneck -16.76742619885909 -2.7938989390088422 -2.381918874085981
upperneck 20.670701376458386 -3.64906249428968 2.349595535014607
head 9.3568977611073 -1.6748378270661606 0.6471855925302346
lclavicle 5.250946483825499e-16 -7.394419095395261e-16
lhumerus -25.914042857972376 0.4203708195649205 82.08250694251348
lradius 31.487618247691397
lwrist 10.61866529749846
lhand -29.661706912956955 20.448560842657727
lfingers nan
lthumb -3.275917313221293 49.20448754583304
rclavicle 3.829049335955067e-16 -7.758091908974429e-16
rhumerus -37.650877275447456 -26.797515302399134 -72.72460334496719
rradius 25.54513026297621
rwrist 4.966027988744135
rhand -18.13457060683862 -1.0
rfingers nan
rthumb 8.067534829986041 -6.96821284377343
83
root 0.2627180052550674 17.838434687672777 38.54384940610681 -3.829431073150319 1.8858787454276382 -3.8112688727528203
lfemur 1.9631978225232904 -3.761107771528036 -17.235756813648074
ltibia 53.059453494242405
lfoot 14.497353042341466 -15.626708458678408
ltoes -4.222517021904917
rfemur -20.43430942253817 3.3438686456043794 28.986293188557173
rtibia 32.670045993578505
rfoot -6.263596813170117 -7.355730571735301
rtoes 6.10133771779082
lowerback -1.0 -0.8425450525460643 0.6746613951003103
upperback 0.18223655828808977 -0.8497878173294302 2.5760824568892735
thorax -5.716302872516593 -0.39610208852988504 2.7020763505251333
lowerneck -16.601006490385686 -2.819021037669215 -2.321567109378243
upperneck 20.657549844289008 -3.69761637975691 2.3315440451450424
head 9.349356366094487 -1.6901475058265776 0.6285230917410989
lclavicle 5.646456943366977e-16 -7.384188887029493e-16
lhumerus -26.701225184328056 0.8119698738496157 82.32751506948662
lradius 31.139172610236646
lwrist 10.333904615479542
lhand -29.482731599220145 20.759714175742985
lfingers nan
lthumb -3.0830801436836026 49.529831612346804
rclavicle 4.080652507226244e-16 -7.863504432308294e-16
rhumerus -37.75145916401209 -27.090343171102653 -72.43874816338482
rradius 25.1173089890099
rwrist 5.225704030817391
rhand -18.02651188277974 -1.0
rfingers nan
rthumb 8.157254404923531 -7.079062192955343
84
root 0.20249198179372196 17.908472317393233 38.162294936125036 -4.082476319557662 1.7233824607578114 -4.829771984981746
lfemur -3.702918456611391 -2.8060602311553744 -15.162930535237546
ltibia 60.78359298848987
lfoot 11.88600425938467 -14.584680720713763
ltoes -4.092401778770561
rfemur -16.958497840083677 3.682786100409917 30.720741242454842
rtibia 31.65720450231951
rfoot -7.761696370560305 -7.79865963201115
rtoes 5.861984555372329
lowerback -1.0 -0.5583559916555666 1.5717222451988693
upperback 0.2131271559583675 -0.3441732637535102 2.6478002443474598
thorax -5.736177826973166 -0.17069933953354452 2.0535019301878603
lowerneck -16.442737955500416 -2.8568056583535326 -2.2592043028817974
upperneck 20.61253633662335 -3.7689547996271706 2.329565407823364
head 9.328067409318546 -1.7106263694918011 0.6104897875397415
lclavicle 5.980714220370502e-16 -7.44663348695845e-16
lhumerus -27.566239946193484 1.2116685955536375 82.57724982871547
lradius 30.694136868063445
lwrist 9.967187155959657
lhand -29.280213538907336 21.12747710846103
lfingers nan
lthumb -2.869646045585761 49.89684251244456
rclavicle 4.669939694815047e-16 -7.760927410928095e-16
rhumerus -37.37521381934764 -26.858751061782755 -72.63775014250146
rradius 24.918504967416595
rwrist 5.212418962950713
rhand -17.932862669539997 -1.0
rfingers nan
rthumb 8.26822285394835 -7.143751319197572
